# xmcd
#
# Track frame offsets:
#	150
#	122120
#	152512
#	188617
#	212652
#	250156
#
# Disc length: 3746 seconds
#
# Revision: 1
# Processed by: cddbd v1.5.2PL0 Copyright (c) Steve Scherf et al.
# Submitted via: audiograbber 1.83.01
#
DISCID=470ea006
DTITLE=Grateful Dead - 69-05-24 Seminole Indian Village, Hollywood FL
DYEAR=1900
DGENRE=
TTITLE0=Turn On Your Lovelight
TTITLE1=Doin' That Rag
TTITLE2=He Was A Friend Of Mine
TTITLE3=China Cat Sunflower
TTITLE4=The Eleven
TTITLE5=Death Don't Have No Mercy
EXTD=
EXTT0=
EXTT1=
EXTT2=
EXTT3=
EXTT4=
EXTT5=
PLAYORDER=
